<?xml version="1.0" encoding="UTF-8"?>
<svg version="1.1" xmlns="http://www.w3.org/2000/svg" width="96" height="96">
<path d="M0 0 C3.37991574 0.3557806 6.04288438 1.35715799 9 3 C9.99 2.34 10.98 1.68 12 1 C12.99 1 13.98 1 15 1 C14.93296875 1.65226563 14.8659375 2.30453125 14.796875 2.9765625 C14.74327858 6.00475999 14.91931783 8.15677666 16 11 C18.79897445 12.94573869 21.64871418 14.12545154 24.78515625 15.453125 C33.00927145 19.41029343 38.333792 26.84807868 42 35 C42.31839844 35.63808594 42.63679688 36.27617188 42.96484375 36.93359375 C47.04587082 46.58136742 46.3869249 59.37451126 42.9375 69.0625 C37.60509742 80.93717802 29.03971755 89.24747716 17.04296875 94.2734375 C7.20417733 97.77251055 -5.9761954 97.50164825 -15.54296875 93.328125 C-27.87563269 86.66182017 -34.45515569 78.80551993 -40 66 C-43.03031962 55.57485507 -42.04809504 42.54918288 -37 33 C-32.12983097 24.31229214 -26.86557337 18.1070797 -17.625 14.1875 C-13.26981996 12.31089462 -13.26981996 12.31089462 -11.0078125 8.40234375 C-10.77215633 5.86368408 -10.73965292 3.53337734 -11 1 C-9.88625 1.2475 -9.88625 1.2475 -8.75 1.5 C-5.80993422 2.11925696 -5.80993422 2.11925696 -2 2 C-1.34 1.34 -0.68 0.68 0 0 Z " fill="#F82F13" transform="translate(46,0)"/>
<path d="M0 0 C9.90722981 2.05530861 15.67639371 7.00126588 21.421875 15.109375 C25.38805945 22.37416831 26.53051671 29.15877439 26.4375 37.375 C26.43137695 38.29676025 26.42525391 39.21852051 26.41894531 40.16821289 C26.26100472 47.0489554 25.30917245 52.87573292 22 59 C21.4225 60.0725 20.845 61.145 20.25 62.25 C14.72103659 69.00762195 7.96338076 74.95774642 -1 76 C-5.40371443 76.40253331 -8.81204297 76.60717804 -12.8125 74.5625 C-23.30629095 62.26977346 -22.93872133 42.9628521 -22.21582031 27.69091797 C-21.49109939 18.65486139 -19.11460835 8.95800261 -13 2 C-8.70227547 -0.86514968 -5.04323075 -0.46845685 0 0 Z " fill="#FAB6AC" transform="translate(60,15)"/>
<path d="M0 0 C9.90722981 2.05530861 15.67639371 7.00126588 21.421875 15.109375 C25.38805945 22.37416831 26.53051671 29.15877439 26.4375 37.375 C26.43137695 38.29676025 26.42525391 39.21852051 26.41894531 40.16821289 C26.26100472 47.0489554 25.30917245 52.87573292 22 59 C21.4225 60.0725 20.845 61.145 20.25 62.25 C14.72103659 69.00762195 7.96338076 74.95774642 -1 76 C-5.40371443 76.40253331 -8.81204297 76.60717804 -12.8125 74.5625 C-23.30629095 62.26977346 -22.93872133 42.9628521 -22.21582031 27.69091797 C-21.49109939 18.65486139 -19.11460835 8.95800261 -13 2 C-8.70227547 -0.86514968 -5.04323075 -0.46845685 0 0 Z M-12 8 C-16.86640824 17.56896434 -17.18179805 26.70139799 -17.1875 37.25 C-17.19974609 38.42691406 -17.21199219 39.60382812 -17.22460938 40.81640625 C-17.24243643 51.50075172 -16.51279652 62.00422897 -9.6640625 70.6953125 C-6.84425366 72.90614854 -4.08173598 72.46433381 -0.625 72.34375 C5.99763353 71.47650037 10.94726279 67.83771079 15.4609375 63.06640625 C22.82070745 53.18488772 22.72337043 40.74539241 22 29 C20.75205311 20.53934312 16.66692075 14.57042284 10.625 8.6875 C3.49387804 4.10320731 -5.56266759 0.6927578 -12 8 Z " fill="#FEF6F4" transform="translate(60,15)"/>
<path d="M0 0 C2.5 0.25 2.5 0.25 4.5 2.25 C4.75 5.25 4.75 5.25 4.5 8.25 C3.84 8.91 3.18 9.57 2.5 10.25 C-0.625 9.875 -0.625 9.875 -3.5 9.25 C-4.125 5.875 -4.125 5.875 -4.5 2.25 C-2.5 0.25 -2.5 0.25 0 0 Z " fill="#F8361B" transform="translate(60.5,68.75)"/>
<path d="M0 0 C2.5 0.25 2.5 0.25 4.5 2.25 C4.75 4.75 4.75 4.75 4.5 7.25 C2.5 9.25 2.5 9.25 0 9.5 C-2.5 9.25 -2.5 9.25 -4.5 7.25 C-4.75 4.75 -4.75 4.75 -4.5 2.25 C-2.5 0.25 -2.5 0.25 0 0 Z " fill="#F83013" transform="translate(60.5,26.75)"/>
<path d="M0 0 C2.5625 0.1875 2.5625 0.1875 4.5625 2.1875 C4.1875 4.8125 4.1875 4.8125 3.5625 7.1875 C1.25 7.875 1.25 7.875 -1.4375 8.1875 C-3.3125 7 -3.3125 7 -4.4375 5.1875 C-4.02450713 1.6770606 -3.6499568 0.28076591 0 0 Z " fill="#F8361B" transform="translate(73.4375,48.8125)"/>
<path d="M0 0 C2.5625 0.1875 2.5625 0.1875 4.5625 2.1875 C4.1875 4.8125 4.1875 4.8125 3.5625 7.1875 C1.25 7.875 1.25 7.875 -1.4375 8.1875 C-3.3125 7 -3.3125 7 -4.4375 5.1875 C-4.02450713 1.6770606 -3.6499568 0.28076591 0 0 Z " fill="#F8361A" transform="translate(60.4375,48.8125)"/>
<path d="M0 0 C2.5 0.125 2.5 0.125 3.5 1.125 C3.54080783 3.12458364 3.54254356 5.12545254 3.5 7.125 C0.625 7.75 0.625 7.75 -2.5 8.125 C-3.16 7.465 -3.82 6.805 -4.5 6.125 C-3.77607362 0.18880368 -3.77607362 0.18880368 0 0 Z " fill="#F83216" transform="translate(52.5,58.875)"/>
<path d="M0 0 C2.5 0.125 2.5 0.125 3.5 1.125 C3.54080783 3.12458364 3.54254356 5.12545254 3.5 7.125 C0.625 7.75 0.625 7.75 -2.5 8.125 C-3.16 7.465 -3.82 6.805 -4.5 6.125 C-3.77607362 0.18880368 -3.77607362 0.18880368 0 0 Z " fill="#F83216" transform="translate(52.5,38.875)"/>
<path d="M0 0 C1.4540625 0.0309375 1.4540625 0.0309375 2.9375 0.0625 C3.5625 2.9375 3.5625 2.9375 3.9375 6.0625 C3.2775 6.7225 2.6175 7.3825 1.9375 8.0625 C-2.61805556 7.50694444 -2.61805556 7.50694444 -4.0625 6.0625 C-4.1875 3.5625 -4.1875 3.5625 -4.0625 1.0625 C-3.0625 0.0625 -3.0625 0.0625 0 0 Z " fill="#F83216" transform="translate(70.0625,35.9375)"/>
<path d="M0 0 C2.625 0.375 2.625 0.375 5 1 C5.625 3.375 5.625 3.375 6 6 C4 8 4 8 1.4375 8.1875 C-1 8 -1 8 -2 7 C-2.1875 4.5625 -2.1875 4.5625 -2 2 C-1.34 1.34 -0.68 0.68 0 0 Z " fill="#F83114" transform="translate(68,61)"/>
</svg>
