<svg width="24" height="24" viewBox="0 0 24 24" fill="none" xmlns="http://www.w3.org/2000/svg">
<path fill-rule="evenodd" clip-rule="evenodd" d="M17.1966 7.55631C18.9615 7.68928 22.5932 8.19457 23 9.15197C22.8006 11.251 22.0846 15.9734 20.8162 18.0706C19.2308 20.692 16.6282 23 12.5 23C8.37179 23 5.76923 20.692 4.18376 18.0706C2.91538 15.9734 2.19943 11.251 2 9.15197C2.40684 8.19457 6.03846 7.68928 7.80342 7.55631C7.97293 7.08141 8.53333 5.7213 9.4188 4.08005C10.3043 2.43881 11.453 2 12.5 2C13.547 2 14.6957 2.43881 15.5812 4.08005C16.4667 5.7213 17.0271 7.08141 17.1966 7.55631ZM12.5 3.79512C13.1282 3.79512 13.8162 4.64993 14.0855 5.13433C14.3009 5.52185 14.8632 6.79647 15.1026 7.38535H9.89744C10.1368 6.79647 10.6991 5.52185 10.9145 5.13433C11.1838 4.64993 11.8718 3.79512 12.5 3.79512Z" fill="url(#paint0_linear_28994_26787)"/>
<defs>
<linearGradient id="paint0_linear_28994_26787" x1="12.5" y1="2" x2="12.5" y2="23" gradientUnits="userSpaceOnUse">
<stop stop-color="#8FC345"/>
<stop offset="1" stop-color="#118F4E"/>
</linearGradient>
</defs>
</svg>
