<svg width="24" height="24" viewBox="0 0 24 24" fill="none" xmlns="http://www.w3.org/2000/svg">
<path d="M15.6447 11.1254L13 13.7414V3H11V13.7414L8.35529 11.1254L6.99999 12.466L11.289 16.7085C11.6817 17.0969 12.3183 17.0969 12.7109 16.7085L17 12.466L15.6447 11.1254Z" fill="#424750"/>
<path d="M7 7.99996H6C4.34315 7.99996 3 9.34311 3 11V18C3 19.6568 4.34315 21 6 21H18C19.6569 21 21 19.6568 21 18V11C21 9.34311 19.6569 7.99996 18 7.99996H17V9.99996H18C18.5523 9.99996 19 10.4477 19 11V18C19 18.5522 18.5523 19 18 19H6C5.44771 19 5 18.5522 5 18V11C5 10.4477 5.44772 9.99996 6 9.99996H7V7.99996Z" fill="#424750"/>
</svg>
