<svg width="349" height="76" viewBox="0 0 349 76" fill="none" xmlns="http://www.w3.org/2000/svg">
<g filter="url(#filter0_d_28954_26487)">
<rect x="3" y="2" width="343" height="70" rx="8" fill="white"/>
</g>
<path d="M267.765 33H269.235C270.206 33 271 31.9127 271 30.5839V23.4161C271 22.0792 270.206 21 269.235 21H267.765C266.794 21 266 22.0792 266 23.4161V30.5839C266 31.9127 266.794 33 267.765 33Z" fill="#D9D9D9"/>
<path d="M278.235 16H276.765C275.794 16 275 17.1222 275 18.4939V30.5061C275 31.8777 275.794 33 276.765 33H278.235C279.206 33 280 31.8777 280 30.5061V18.4939C280 17.1222 279.206 16 278.235 16Z" fill="#C83067"/>
<path d="M286.235 12H284.765C283.794 12 283 13.0904 283 14.4231V30.5769C283 31.9096 283.794 33 284.765 33H286.235C287.206 33 288 31.9096 288 30.5769V14.4231C288 13.0904 287.206 12 286.235 12Z" fill="#D9D9D9"/>
<path d="M251.081 54C250.493 54 249.919 53.7993 249.359 53.398C249.125 53.5847 248.869 53.734 248.589 53.846C248.309 53.9487 248.024 54 247.735 54H242.135V52.824H243.451L243.899 52.222L243.605 44.788L244.669 44.732L244.921 50.906L245.145 50.598C245.583 50.0007 245.999 49.5527 246.391 49.254C246.783 48.9553 247.231 48.806 247.735 48.806C248.211 48.806 248.64 48.9273 249.023 49.17C249.415 49.4033 249.718 49.7253 249.933 50.136C250.157 50.5467 250.269 51.004 250.269 51.508C250.269 51.8533 250.194 52.1893 250.045 52.516C250.362 52.7213 250.707 52.824 251.081 52.824H251.277L251.347 53.412L251.277 54H251.081ZM247.763 52.824C248.155 52.824 248.491 52.6887 248.771 52.418C249.051 52.1473 249.191 51.8253 249.191 51.452C249.191 51.032 249.055 50.682 248.785 50.402C248.523 50.122 248.183 49.982 247.763 49.982C247.408 49.982 247.091 50.108 246.811 50.36C246.531 50.6027 246.153 51.0273 245.677 51.634L244.711 52.824H247.763ZM258.7 54C258.345 54 258.023 53.9347 257.734 53.804C257.445 53.664 257.202 53.4727 257.006 53.23C256.605 53.7433 256.021 54 255.256 54C254.901 54 254.579 53.93 254.29 53.79C254.001 53.65 253.758 53.4587 253.562 53.216C253.151 53.7387 252.563 54 251.798 54H251.14V52.824H251.798C252.638 52.824 253.058 52.446 253.058 51.69V49.954H254.052V51.69V51.774C254.052 52.0913 254.155 52.348 254.36 52.544C254.575 52.7307 254.873 52.824 255.256 52.824C256.059 52.824 256.479 52.4833 256.516 51.802V51.69V49.954H257.51V51.69V51.802C257.519 52.1193 257.627 52.3713 257.832 52.558C258.037 52.7353 258.327 52.824 258.7 52.824C259.073 52.824 259.377 52.74 259.61 52.572C259.853 52.3947 259.974 52.1053 259.974 51.704C259.974 51.4893 259.941 51.2653 259.876 51.032L259.316 48.946L260.338 48.652L260.898 50.738C260.991 51.074 261.038 51.4007 261.038 51.718C261.038 52.2033 260.931 52.6187 260.716 52.964C260.501 53.3 260.217 53.5567 259.862 53.734C259.507 53.9113 259.12 54 258.7 54ZM263.067 56.436C264.187 56.2027 264.985 56.016 265.461 55.876C265.937 55.7453 266.287 55.568 266.511 55.344C266.735 55.1293 266.847 54.8167 266.847 54.406C266.847 54.3313 266.838 54.21 266.819 54.042V54H264.985C264.267 54 263.693 53.7807 263.263 53.342C262.843 52.9033 262.633 52.306 262.633 51.55C262.633 51.074 262.736 50.626 262.941 50.206C263.147 49.786 263.431 49.45 263.795 49.198C264.169 48.9367 264.598 48.806 265.083 48.806C265.765 48.806 266.334 49.072 266.791 49.604C267.258 50.1267 267.543 50.8173 267.645 51.676L267.771 52.824H268.625L268.695 53.412L268.625 54H268.597H267.897C267.907 54.1027 267.911 54.252 267.911 54.448C267.911 55.1107 267.753 55.6287 267.435 56.002C267.118 56.3753 266.647 56.6693 266.021 56.884C265.396 57.108 264.481 57.346 263.277 57.598L263.067 56.436ZM263.711 51.536C263.711 52.3947 264.136 52.824 264.985 52.824H266.693L266.581 51.802C266.516 51.2327 266.353 50.7893 266.091 50.472C265.83 50.1453 265.494 49.982 265.083 49.982C264.654 49.982 264.318 50.136 264.075 50.444C263.833 50.7427 263.711 51.1067 263.711 51.536ZM268.49 52.824H270.632C271.528 52.824 271.948 52.474 271.892 51.774V51.732L271.738 50.01L272.802 49.912L272.956 51.634V51.718C273.002 52.1287 273.114 52.418 273.292 52.586C273.478 52.7447 273.786 52.824 274.216 52.824L274.286 53.412L274.216 54C273.441 54 272.853 53.7713 272.452 53.314C272.246 53.538 271.985 53.7107 271.668 53.832C271.36 53.944 271.014 54 270.632 54H268.49V52.824ZM268.854 47.14H270.1V48.386H268.854V47.14ZM271.332 47.14H272.578V48.386H271.332V47.14ZM274.081 52.824H274.235C274.543 52.824 274.814 52.754 275.047 52.614C275.29 52.474 275.477 52.278 275.607 52.026L276.657 50.01C276.835 49.6647 277.087 49.3987 277.413 49.212C277.74 49.016 278.09 48.918 278.463 48.918C278.818 48.918 279.135 48.9973 279.415 49.156C279.807 49.3613 280.097 49.6413 280.283 49.996C280.479 50.3413 280.577 50.7427 280.577 51.2C280.577 51.8067 280.414 52.46 280.087 53.16C279.957 53.4307 279.765 53.65 279.513 53.818C279.261 53.986 278.991 54.07 278.701 54.07C278.477 54.07 278.253 54.014 278.029 53.902L276.237 52.978C275.995 53.3047 275.701 53.5567 275.355 53.734C275.019 53.9113 274.646 54 274.235 54H274.081V52.824ZM278.645 52.894C278.739 52.9407 278.823 52.964 278.897 52.964C278.991 52.964 279.07 52.9407 279.135 52.894C279.201 52.838 279.247 52.7727 279.275 52.698L279.401 52.446C279.56 52.054 279.639 51.6947 279.639 51.368C279.639 51.088 279.583 50.8453 279.471 50.64C279.369 50.4253 279.21 50.262 278.995 50.15C278.827 50.066 278.659 50.024 278.491 50.024C278.277 50.024 278.076 50.0847 277.889 50.206C277.703 50.318 277.558 50.4767 277.455 50.682L276.797 51.956L278.645 52.894ZM290.233 58.844C289.888 58.928 289.547 58.97 289.211 58.97C288.371 58.97 287.624 58.7273 286.971 58.242C286.318 57.7567 285.879 57.1033 285.655 56.282C285.571 55.974 285.529 55.652 285.529 55.316C285.529 54.504 285.79 53.7527 286.313 53.062C286.845 52.3713 287.671 51.8767 288.791 51.578L292.613 50.57L289.519 48.932C289.248 48.7827 288.968 48.708 288.679 48.708C288.38 48.708 288.1 48.7873 287.839 48.946C287.578 49.1047 287.363 49.324 287.195 49.604L286.943 50.038L286.019 49.464L286.285 48.988C286.565 48.512 286.91 48.148 287.321 47.896C287.732 47.644 288.175 47.518 288.651 47.518C289.118 47.518 289.58 47.644 290.037 47.896L293.915 50.052L293.761 51.424L293.005 51.634C293.108 51.9887 293.299 52.278 293.579 52.502C293.868 52.7167 294.209 52.824 294.601 52.824H295.119L295.189 53.412L295.119 54H294.601C293.966 54 293.416 53.804 292.949 53.412C292.482 53.02 292.174 52.516 292.025 51.9L289.057 52.726C288.17 52.9593 287.536 53.314 287.153 53.79C286.78 54.2567 286.593 54.7653 286.593 55.316C286.593 55.4747 286.621 55.6847 286.677 55.946C286.826 56.4967 287.134 56.94 287.601 57.276C288.068 57.612 288.604 57.78 289.211 57.78C289.482 57.78 289.743 57.7473 289.995 57.682L293.565 56.702L293.831 57.85L290.233 58.844ZM303.918 54C303.302 54 302.732 53.7993 302.21 53.398C301.734 53.7993 301.192 54 300.586 54H295V52.824H296.316L296.75 52.222L296.47 44.788L297.52 44.732L297.786 50.878L297.996 50.598C298.444 50.0007 298.859 49.5527 299.242 49.254C299.634 48.9553 300.082 48.806 300.586 48.806C301.062 48.806 301.491 48.9273 301.874 49.17C302.266 49.4033 302.569 49.7253 302.784 50.136C303.008 50.5467 303.12 51.004 303.12 51.508C303.12 51.8533 303.045 52.1893 302.896 52.516C303.194 52.7213 303.535 52.824 303.918 52.824H304.114L304.184 53.412L304.114 54H303.918ZM300.614 52.824C301.015 52.824 301.356 52.6887 301.636 52.418C301.916 52.1473 302.056 51.8253 302.056 51.452C302.056 51.032 301.92 50.682 301.65 50.402C301.379 50.122 301.034 49.982 300.614 49.982C300.259 49.982 299.942 50.108 299.662 50.36C299.382 50.6027 299.008 51.0273 298.542 51.634L297.562 52.824H300.614ZM311.528 54C311.173 54 310.851 53.9347 310.562 53.804C310.273 53.664 310.03 53.4727 309.834 53.23C309.433 53.7433 308.849 54 308.084 54C307.729 54 307.407 53.93 307.118 53.79C306.829 53.65 306.586 53.4587 306.39 53.216C305.979 53.7387 305.391 54 304.626 54H303.968V52.824H304.626C305.466 52.824 305.886 52.446 305.886 51.69V49.954H306.88V51.69V51.774C306.88 52.0913 306.983 52.348 307.188 52.544C307.403 52.7307 307.701 52.824 308.084 52.824C308.887 52.824 309.307 52.4833 309.344 51.802V51.69V49.954H310.338V51.69V51.802C310.347 52.1193 310.455 52.3713 310.66 52.558C310.865 52.7353 311.155 52.824 311.528 52.824C311.901 52.824 312.205 52.74 312.438 52.572C312.681 52.3947 312.802 52.1053 312.802 51.704C312.802 51.4893 312.769 51.2653 312.704 51.032L312.144 48.946L313.166 48.652L313.726 50.738C313.819 51.074 313.866 51.4007 313.866 51.718C313.866 52.2033 313.759 52.6187 313.544 52.964C313.329 53.3 313.045 53.5567 312.69 53.734C312.335 53.9113 311.948 54 311.528 54Z" fill="black"/>
<path d="M178.5 14.6499C173.72 14.6499 169.83 18.5399 169.83 23.3199C169.83 28.0999 173.72 31.9999 178.5 31.9999C183.28 31.9999 187.17 28.1099 187.17 23.3299C187.17 18.5499 183.28 14.6499 178.5 14.6499ZM179.25 22.9999C179.25 23.4099 178.91 23.7499 178.5 23.7499C178.09 23.7499 177.75 23.4099 177.75 22.9999V17.9999C177.75 17.5899 178.09 17.2499 178.5 17.2499C178.91 17.2499 179.25 17.5899 179.25 17.9999V22.9999Z" fill="#C83067"/>
<path d="M181.39 13.45H175.61C175.21 13.45 174.89 13.13 174.89 12.73C174.89 12.33 175.21 12 175.61 12H181.39C181.79 12 182.11 12.32 182.11 12.72C182.11 13.12 181.79 13.45 181.39 13.45Z" fill="#C83067"/>
<path d="M139.576 52.964C139.52 52.9733 139.44 52.978 139.338 52.978C138.88 52.978 138.446 52.824 138.036 52.516C137.625 52.1987 137.345 51.816 137.196 51.368C137.121 51.116 137.084 50.878 137.084 50.654C137.084 50.1593 137.228 49.702 137.518 49.282C137.807 48.862 138.185 48.5727 138.652 48.414L140.71 47.728V47.098H141.774V51.214C141.774 51.662 141.932 52.0447 142.25 52.362C142.576 52.67 142.973 52.824 143.44 52.824H143.706L143.776 53.412L143.706 54H143.44C142.964 54 142.52 53.8833 142.11 53.65C141.708 53.4167 141.382 53.104 141.13 52.712L139.576 52.964ZM138.204 50.948C138.278 51.2093 138.442 51.4287 138.694 51.606C138.946 51.774 139.212 51.8347 139.492 51.788L140.738 51.578C140.719 51.41 140.71 51.2887 140.71 51.214V48.904L138.988 49.492C138.726 49.5853 138.521 49.7347 138.372 49.94C138.222 50.136 138.148 50.3553 138.148 50.598C138.148 50.682 138.166 50.7987 138.204 50.948ZM143.56 52.824H144.386C144.75 52.824 145.203 52.7773 145.744 52.684C145.436 52.4507 145.198 52.2127 145.03 51.97C144.862 51.7273 144.787 51.4987 144.806 51.284L144.876 50.472C144.913 50.0613 145.044 49.6927 145.268 49.366C145.501 49.0393 145.795 48.7827 146.15 48.596C146.505 48.4093 146.883 48.316 147.284 48.316C147.769 48.316 148.194 48.4467 148.558 48.708C148.922 48.9693 149.197 49.3053 149.384 49.716C149.571 50.1267 149.65 50.5513 149.622 50.99L149.58 51.592C149.552 51.9747 149.258 52.3573 148.698 52.74C149.053 52.796 149.435 52.824 149.846 52.824H150.77L150.84 53.412L150.77 54H149.846C148.987 54 148.105 53.8227 147.2 53.468C146.201 53.8227 145.263 54 144.386 54H143.56V52.824ZM145.408 45.936H146.654V47.182H145.408V45.936ZM145.856 51.326C145.903 51.466 146.043 51.6293 146.276 51.816C146.509 51.9933 146.803 52.1567 147.158 52.306C147.979 52.0167 148.437 51.7367 148.53 51.466L148.586 50.976C148.605 50.7427 148.563 50.514 148.46 50.29C148.357 50.0567 148.199 49.8653 147.984 49.716C147.779 49.5667 147.536 49.492 147.256 49.492C146.911 49.492 146.607 49.604 146.346 49.828C146.094 50.052 145.954 50.332 145.926 50.668L145.856 51.326ZM147.886 45.936H149.132V47.182H147.886V45.936ZM150.628 52.824H152.77C153.666 52.824 154.086 52.474 154.03 51.774V51.732L153.876 50.01L154.94 49.912L155.094 51.634V51.718C155.141 52.1287 155.253 52.418 155.43 52.586C155.617 52.7447 155.925 52.824 156.354 52.824L156.424 53.412L156.354 54C155.58 54 154.992 53.7713 154.59 53.314C154.385 53.538 154.124 53.7107 153.806 53.832C153.498 53.944 153.153 54 152.77 54H150.628V52.824ZM150.026 55.4H151.272V56.66H150.026V55.4ZM152.504 55.4H153.75V56.66H152.504V55.4ZM156.22 52.824H159.076C159.627 52.824 160.037 52.8007 160.308 52.754C160.588 52.7073 160.779 52.6233 160.882 52.502C160.985 52.3807 161.036 52.1987 161.036 51.956C161.036 51.8253 161.031 51.7227 161.022 51.648C160.481 51.732 159.893 51.774 159.258 51.774C158.567 51.774 158.021 51.5733 157.62 51.172C157.219 50.7613 157.018 50.206 157.018 49.506C157.018 49.03 157.107 48.5867 157.284 48.176C157.471 47.756 157.741 47.42 158.096 47.168C158.451 46.916 158.88 46.79 159.384 46.79C160.056 46.79 160.621 47.042 161.078 47.546C161.535 48.05 161.797 48.722 161.862 49.562L162.03 51.48C162.049 51.7413 162.058 51.9233 162.058 52.026C162.058 52.5113 161.969 52.894 161.792 53.174C161.615 53.454 161.307 53.664 160.868 53.804C160.439 53.9347 159.832 54 159.048 54H156.22V52.824ZM157.452 44.396H158.698V45.656H157.452V44.396ZM157.984 49.422C157.984 49.8047 158.096 50.1127 158.32 50.346C158.553 50.57 158.866 50.682 159.258 50.682C159.809 50.682 160.364 50.6353 160.924 50.542L160.84 49.66C160.775 49.0907 160.607 48.652 160.336 48.344C160.075 48.0267 159.743 47.868 159.342 47.868C158.922 47.868 158.591 48.022 158.348 48.33C158.105 48.638 157.984 49.002 157.984 49.422ZM159.93 44.396H161.176V45.656H159.93V44.396ZM165.951 54C165.26 54 164.71 53.8647 164.299 53.594C163.898 53.314 163.674 52.95 163.627 52.502C163.58 52.306 163.557 51.998 163.557 51.578H164.537C164.537 51.8673 164.556 52.1007 164.593 52.278C164.63 52.474 164.742 52.614 164.929 52.698C165.125 52.782 165.41 52.824 165.783 52.824H166.735C167.706 52.824 168.191 52.5347 168.191 51.956C168.191 51.816 168.172 51.6853 168.135 51.564C167.986 51.0787 167.706 50.4813 167.295 49.772C166.884 49.0627 166.432 48.358 165.937 47.658L166.791 46.958C167.342 47.714 167.841 48.4887 168.289 49.282C168.737 50.066 169.031 50.738 169.171 51.298C169.227 51.522 169.255 51.746 169.255 51.97C169.255 52.5673 169.031 53.0573 168.583 53.44C168.144 53.8133 167.482 54 166.595 54H165.951ZM176.988 49.436C176.661 49.436 176.348 49.3613 176.05 49.212L176.498 53.944L175.434 54.056L174.79 47.35L174.776 47.224L174.552 44.872L175.616 44.76L175.854 47.21C175.9 47.5553 176.022 47.8167 176.218 47.994C176.414 48.1713 176.67 48.26 176.988 48.26H177.352C177.09 47.8307 176.96 47.3687 176.96 46.874C176.96 46.4073 177.072 45.978 177.296 45.586C177.52 45.194 177.823 44.886 178.206 44.662C178.598 44.4287 179.022 44.312 179.48 44.312C179.909 44.312 180.385 44.4287 180.908 44.662C181.43 44.886 181.696 45.0027 181.706 45.012L181.244 46.076C181.188 46.0573 180.94 45.9593 180.502 45.782C180.072 45.6047 179.741 45.5067 179.508 45.488C179.097 45.4507 178.747 45.572 178.458 45.852C178.168 46.132 178.024 46.4727 178.024 46.874C178.024 47.266 178.15 47.5973 178.402 47.868C178.663 48.1293 178.98 48.26 179.354 48.26H181.902V49.436H176.988ZM188.704 54C188.377 54 188.074 53.9347 187.794 53.804C187.523 53.664 187.285 53.4727 187.08 53.23C186.875 53.4727 186.627 53.664 186.338 53.804C186.058 53.9347 185.755 54 185.428 54H185.274C184.873 54 184.509 53.902 184.182 53.706C183.855 53.51 183.594 53.244 183.398 52.908C183.211 52.5627 183.118 52.1893 183.118 51.788C183.118 50.9947 183.174 50.3833 183.286 49.954C183.398 49.5153 183.664 49.0113 184.084 48.442C184.504 47.8727 185.246 47 186.31 45.824L185.708 45.152L186.492 44.368C188.079 46.1227 189.147 47.35 189.698 48.05C190.258 48.7407 190.617 49.324 190.776 49.8C190.935 50.276 191.014 50.9387 191.014 51.788C191.014 52.1893 190.916 52.5627 190.72 52.908C190.533 53.244 190.277 53.51 189.95 53.706C189.623 53.902 189.259 54 188.858 54H188.704ZM184.182 51.788C184.182 52.0773 184.285 52.3247 184.49 52.53C184.695 52.726 184.957 52.824 185.274 52.824H185.428C185.736 52.824 185.997 52.7213 186.212 52.516C186.427 52.3107 186.534 52.068 186.534 51.788V50.934H187.598V51.732C187.626 52.068 187.738 52.334 187.934 52.53C188.139 52.726 188.396 52.824 188.704 52.824H188.858C189.166 52.824 189.423 52.726 189.628 52.53C189.843 52.3247 189.95 52.0773 189.95 51.788C189.95 51.1533 189.899 50.6633 189.796 50.318C189.693 49.9633 189.455 49.5387 189.082 49.044C188.709 48.5493 188.032 47.7513 187.052 46.65C186.053 47.7607 185.372 48.554 185.008 49.03C184.644 49.506 184.415 49.9167 184.322 50.262C184.229 50.6073 184.182 51.116 184.182 51.788ZM195.337 56.45L195.925 56.282C196.476 56.1327 196.9 55.9927 197.199 55.862C197.507 55.7407 197.759 55.5633 197.955 55.33C198.151 55.106 198.249 54.798 198.249 54.406C198.249 54.3313 198.24 54.21 198.221 54.042L197.661 50.024L198.711 49.856L199.117 52.838L199.271 53.902C199.299 54.1167 199.313 54.3127 199.313 54.49C199.313 55.0593 199.182 55.5307 198.921 55.904C198.66 56.2867 198.305 56.59 197.857 56.814C197.418 57.038 196.863 57.2433 196.191 57.43L195.617 57.598L195.337 56.45ZM197.297 46.874H198.711V48.288H197.297V46.874ZM201.147 44.788L202.211 44.732L202.561 53.986L201.511 54.042L201.147 44.788ZM213.184 44.732L213.422 47.084L213.436 47.28C213.436 47.6533 213.333 48.0033 213.128 48.33C212.932 48.6567 212.661 48.918 212.316 49.114C211.98 49.31 211.611 49.408 211.21 49.408H210.734C210.36 49.408 209.992 49.31 209.628 49.114L210.09 53.916L209.026 54.028L208.13 44.844L209.194 44.732L209.432 47.238C209.497 47.5647 209.628 47.812 209.824 47.98C210.02 48.148 210.272 48.232 210.58 48.232H211.21C211.555 48.232 211.84 48.1293 212.064 47.924C212.288 47.7187 212.386 47.4713 212.358 47.182L212.12 44.858L213.184 44.732ZM219.49 50.766C219.49 51.1953 219.383 51.5967 219.168 51.97C218.963 52.3433 218.678 52.642 218.314 52.866C217.96 53.0807 217.568 53.188 217.138 53.188C216.709 53.188 216.312 53.0807 215.948 52.866C215.594 52.642 215.309 52.3433 215.094 51.97C214.88 51.5967 214.772 51.1953 214.772 50.766C214.772 50.3273 214.88 49.926 215.094 49.562C215.309 49.1887 215.594 48.8947 215.948 48.68C216.312 48.456 216.709 48.344 217.138 48.344C217.568 48.344 217.96 48.456 218.314 48.68C218.678 48.8947 218.963 49.1887 219.168 49.562C219.383 49.926 219.49 50.3273 219.49 50.766ZM215.78 50.766C215.78 51.13 215.911 51.438 216.172 51.69C216.443 51.942 216.765 52.068 217.138 52.068C217.512 52.068 217.829 51.942 218.09 51.69C218.361 51.438 218.496 51.13 218.496 50.766C218.496 50.402 218.361 50.094 218.09 49.842C217.829 49.5807 217.512 49.45 217.138 49.45C216.765 49.45 216.443 49.5807 216.172 49.842C215.911 50.094 215.78 50.402 215.78 50.766Z" fill="black"/>
<g clip-path="url(#clip0_28954_26487)">
<path d="M81.5914 19.1091C81.5267 19.028 81.4482 19.0439 81.4071 19.0605C81.3726 19.0744 81.2937 19.1191 81.3046 19.2309C81.3178 19.3652 81.3251 19.5021 81.3265 19.6379C81.3324 20.2013 81.1064 20.7532 80.7065 21.1521C80.3092 21.5485 79.7867 21.7621 79.2303 21.7559C78.4702 21.7462 77.8399 21.3497 77.4073 20.6095C77.0495 19.9973 77.2068 19.2078 77.3732 18.3719C77.4706 17.8826 77.5714 17.3766 77.5714 16.8951C77.5714 13.1456 75.0507 10.9824 73.5482 10.0267C73.5171 10.0069 73.4875 10 73.4613 10C73.4187 10 73.385 10.0184 73.3683 10.0296C73.3361 10.0515 73.2845 10.1013 73.301 10.1894C73.8754 13.2392 72.1624 15.0734 70.3488 17.0154C68.4794 19.0171 66.3606 21.2859 66.3606 25.3777C66.3606 30.1321 70.2286 34.0001 74.983 34.0001C78.8976 34.0001 82.3491 31.2708 83.3762 27.3631C84.0766 24.6985 83.3427 21.3044 81.5914 19.1091ZM75.1981 32.1596C74.0076 32.2139 72.8754 31.7869 72.0106 30.9601C71.1551 30.142 70.6644 29.0004 70.6644 27.8278C70.6644 25.6275 71.5057 24.0122 73.7685 21.8677C73.8056 21.8326 73.8435 21.8215 73.8765 21.8215C73.9065 21.8215 73.9325 21.8306 73.9503 21.8392C73.988 21.8574 74.0498 21.9023 74.0415 21.9994C73.9606 22.9409 73.962 23.7223 74.0456 24.3221C74.2594 25.8542 75.3809 26.8837 76.8366 26.8837C77.5504 26.8837 78.2302 26.6151 78.7509 26.1273C78.8113 26.0707 78.8788 26.0779 78.9047 26.0834C78.939 26.0908 78.9849 26.1118 79.0089 26.1698C79.2248 26.6911 79.3352 27.2445 79.3369 27.8144C79.3438 30.1078 77.4871 32.0571 75.1981 32.1596Z" fill="#C83067"/>
</g>
<path d="M39.7214 57.304C39.3107 57.3973 38.9094 57.444 38.5174 57.444C37.8174 57.444 37.2107 57.2853 36.6974 56.968C36.184 56.66 35.7874 56.2167 35.5074 55.638C35.2367 55.0687 35.1014 54.3967 35.1014 53.622C35.1014 52.7447 35.2787 51.8067 35.6334 50.808L36.6414 51.214C36.324 52.1287 36.1654 52.9453 36.1654 53.664C36.1654 54.4853 36.366 55.1247 36.7674 55.582C37.178 56.0393 37.752 56.268 38.4894 56.268C38.788 56.268 39.1194 56.226 39.4834 56.142C40.2954 55.9553 40.9394 55.7407 41.4154 55.498C41.9007 55.2553 42.1434 55.0407 42.1434 54.854C42.1434 54.7513 42.0594 54.6627 41.8914 54.588C41.7327 54.5227 41.4014 54.4107 40.8974 54.252L40.4074 54.112C39.8007 53.916 39.3434 53.6873 39.0354 53.426C38.7367 53.1647 38.5874 52.7867 38.5874 52.292C38.5874 52.012 38.6434 51.6853 38.7554 51.312C38.8674 50.9293 39.054 50.5467 39.3154 50.164C39.5767 49.7813 39.908 49.4593 40.3094 49.198C40.7107 48.9273 41.1634 48.792 41.6674 48.792C41.9194 48.792 42.1714 48.8247 42.4234 48.89L43.3334 49.142L43.0674 50.29L42.1574 50.038C42.008 49.9913 41.8354 49.968 41.6394 49.968C41.2567 49.968 40.93 50.0753 40.6594 50.29C40.398 50.5047 40.1927 50.7427 40.0434 51.004C39.9034 51.2653 39.8147 51.4753 39.7774 51.634C39.7214 51.83 39.6934 51.9933 39.6934 52.124C39.6934 52.376 39.782 52.558 39.9594 52.67C40.1367 52.782 40.4494 52.9033 40.8974 53.034C41.5414 53.23 41.994 53.3793 42.2554 53.482C42.526 53.5753 42.7407 53.706 42.8994 53.874C43.058 54.0327 43.1607 54.2567 43.2074 54.546C43.2167 54.5927 43.2214 54.6673 43.2214 54.77C43.2214 55.3207 42.9134 55.8153 42.2974 56.254C41.6814 56.702 40.8227 57.052 39.7214 57.304ZM48.4826 54C48.212 54 47.9786 53.972 47.7826 53.916C47.8106 54.1307 47.8246 54.3267 47.8246 54.504C47.8246 55.0733 47.694 55.5447 47.4326 55.918C47.1713 56.2913 46.8166 56.59 46.3686 56.814C45.93 57.038 45.3746 57.2433 44.7026 57.43L44.1286 57.598L43.8486 56.45L44.4366 56.282C44.9873 56.1327 45.412 55.9927 45.7106 55.862C46.0186 55.7407 46.2706 55.5633 46.4666 55.33C46.6626 55.106 46.7606 54.798 46.7606 54.406C46.7606 54.3313 46.7513 54.21 46.7326 54.042L46.1726 50.024L47.2226 49.856L47.2926 50.36C47.3113 50.5093 47.33 50.6167 47.3486 50.682L47.4886 51.578C47.5446 51.9233 47.6053 52.1847 47.6706 52.362C47.7453 52.53 47.8433 52.6513 47.9646 52.726C48.086 52.7913 48.2586 52.824 48.4826 52.824H48.5806L48.6506 53.412L48.5806 54H48.4826ZM48.4681 52.824H48.7901C49.2941 52.824 49.6348 52.712 49.8121 52.488C49.9894 52.264 50.0688 52.0027 50.0501 51.704L49.7841 44.788L50.8481 44.732L51.1141 51.648C51.1328 52.04 51.0628 52.418 50.9041 52.782C50.7454 53.1367 50.4888 53.4307 50.1341 53.664C49.7794 53.888 49.3314 54 48.7901 54H48.4681V52.824ZM55.7074 54C55.1007 54 54.6247 53.9113 54.2794 53.734C53.9341 53.5567 53.6821 53.272 53.5234 52.88C53.3647 52.4787 53.2714 51.928 53.2434 51.228L52.9914 44.788L54.0554 44.732L54.3074 51.228C54.3261 51.704 54.3681 52.0493 54.4334 52.264C54.5081 52.4787 54.6387 52.628 54.8254 52.712C55.0121 52.7867 55.3061 52.824 55.7074 52.824H55.8474L55.9174 53.412L55.8474 54H55.7074ZM55.7142 52.824H58.6122C58.8362 52.824 59.0182 52.768 59.1582 52.656C59.2795 52.572 59.3728 52.4647 59.4382 52.334C59.5128 52.2033 59.5502 52.068 59.5502 51.928C59.5502 51.76 59.4988 51.5873 59.3962 51.41L56.2742 47L56.5122 46.104L61.5802 44.242L61.9442 45.348L57.6042 46.944L60.1942 50.696C60.4835 51.1347 60.6282 51.592 60.6282 52.068C60.6282 52.3293 60.5768 52.5767 60.4742 52.81C60.3808 53.0433 60.2455 53.244 60.0682 53.412C59.7042 53.804 59.2142 54 58.5982 54H55.7142V52.824ZM66.9797 44.886L68.0297 44.774L68.9257 53.944L67.8757 54.056L66.9797 44.886ZM76.6525 44.732L76.8905 47.084L76.9045 47.28C76.9045 47.6533 76.8018 48.0033 76.5965 48.33C76.4005 48.6567 76.1298 48.918 75.7845 49.114C75.4485 49.31 75.0798 49.408 74.6785 49.408H74.2025C73.8292 49.408 73.4605 49.31 73.0965 49.114L73.5585 53.916L72.4945 54.028L71.5985 44.844L72.6625 44.732L72.9005 47.238C72.9658 47.5647 73.0965 47.812 73.2925 47.98C73.4885 48.148 73.7405 48.232 74.0485 48.232H74.6785C75.0238 48.232 75.3085 48.1293 75.5325 47.924C75.7565 47.7187 75.8545 47.4713 75.8265 47.182L75.5885 44.858L76.6525 44.732ZM82.9591 50.766C82.9591 51.1953 82.8517 51.5967 82.6371 51.97C82.4317 52.3433 82.1471 52.642 81.7831 52.866C81.4284 53.0807 81.0364 53.188 80.6071 53.188C80.1777 53.188 79.7811 53.0807 79.4171 52.866C79.0624 52.642 78.7777 52.3433 78.5631 51.97C78.3484 51.5967 78.2411 51.1953 78.2411 50.766C78.2411 50.3273 78.3484 49.926 78.5631 49.562C78.7777 49.1887 79.0624 48.8947 79.4171 48.68C79.7811 48.456 80.1777 48.344 80.6071 48.344C81.0364 48.344 81.4284 48.456 81.7831 48.68C82.1471 48.8947 82.4317 49.1887 82.6371 49.562C82.8517 49.926 82.9591 50.3273 82.9591 50.766ZM79.2491 50.766C79.2491 51.13 79.3797 51.438 79.6411 51.69C79.9117 51.942 80.2337 52.068 80.6071 52.068C80.9804 52.068 81.2977 51.942 81.5591 51.69C81.8297 51.438 81.9651 51.13 81.9651 50.766C81.9651 50.402 81.8297 50.094 81.5591 49.842C81.2977 49.5807 80.9804 49.45 80.6071 49.45C80.2337 49.45 79.9117 49.5807 79.6411 49.842C79.3797 50.094 79.2491 50.402 79.2491 50.766ZM87.6807 56.45L88.2687 56.282C88.8193 56.1327 89.244 55.9927 89.5427 55.862C89.8507 55.7407 90.1027 55.5633 90.2987 55.33C90.4947 55.106 90.5927 54.798 90.5927 54.406C90.5927 54.3313 90.5833 54.21 90.5647 54.042L90.0047 50.024L91.0547 49.856L91.4607 52.838L91.6147 53.902C91.6427 54.1167 91.6567 54.3127 91.6567 54.49C91.6567 55.0593 91.526 55.5307 91.2647 55.904C91.0033 56.2867 90.6487 56.59 90.2007 56.814C89.762 57.038 89.2067 57.2433 88.5347 57.43L87.9607 57.598L87.6807 56.45ZM89.6407 46.874H91.0547V48.288H89.6407V46.874ZM93.4904 44.788L94.5544 44.732L94.9044 53.986L93.8544 54.042L93.4904 44.788ZM105.807 54C105.481 54 105.177 53.9347 104.897 53.804C104.627 53.664 104.389 53.4727 104.183 53.23C103.978 53.4727 103.731 53.664 103.441 53.804C103.161 53.9347 102.858 54 102.531 54H102.377C101.976 54 101.612 53.902 101.285 53.706C100.959 53.51 100.697 53.244 100.501 52.908C100.315 52.5627 100.221 52.1893 100.221 51.788C100.221 50.9947 100.277 50.3833 100.389 49.954C100.501 49.5153 100.767 49.0113 101.187 48.442C101.607 47.8727 102.349 47 103.413 45.824L102.811 45.152L103.595 44.368C105.182 46.1227 106.251 47.35 106.801 48.05C107.361 48.7407 107.721 49.324 107.879 49.8C108.038 50.276 108.117 50.9387 108.117 51.788C108.117 52.1893 108.019 52.5627 107.823 52.908C107.637 53.244 107.38 53.51 107.053 53.706C106.727 53.902 106.363 54 105.961 54H105.807ZM101.285 51.788C101.285 52.0773 101.388 52.3247 101.593 52.53C101.799 52.726 102.06 52.824 102.377 52.824H102.531C102.839 52.824 103.101 52.7213 103.315 52.516C103.53 52.3107 103.637 52.068 103.637 51.788V50.934H104.701V51.732C104.729 52.068 104.841 52.334 105.037 52.53C105.243 52.726 105.499 52.824 105.807 52.824H105.961C106.269 52.824 106.526 52.726 106.731 52.53C106.946 52.3247 107.053 52.0773 107.053 51.788C107.053 51.1533 107.002 50.6633 106.899 50.318C106.797 49.9633 106.559 49.5387 106.185 49.044C105.812 48.5493 105.135 47.7513 104.155 46.65C103.157 47.7607 102.475 48.554 102.111 49.03C101.747 49.506 101.519 49.9167 101.425 50.262C101.332 50.6073 101.285 51.116 101.285 51.788ZM114.473 50.766C114.473 51.1953 114.365 51.5967 114.151 51.97C113.945 52.3433 113.661 52.642 113.297 52.866C112.942 53.0807 112.55 53.188 112.121 53.188C111.691 53.188 111.295 53.0807 110.931 52.866C110.576 52.642 110.291 52.3433 110.077 51.97C109.862 51.5967 109.755 51.1953 109.755 50.766C109.755 50.3273 109.862 49.926 110.077 49.562C110.291 49.1887 110.576 48.8947 110.931 48.68C111.295 48.456 111.691 48.344 112.121 48.344C112.55 48.344 112.942 48.456 113.297 48.68C113.661 48.8947 113.945 49.1887 114.151 49.562C114.365 49.926 114.473 50.3273 114.473 50.766ZM110.763 50.766C110.763 51.13 110.893 51.438 111.155 51.69C111.425 51.942 111.747 52.068 112.121 52.068C112.494 52.068 112.811 51.942 113.073 51.69C113.343 51.438 113.479 51.13 113.479 50.766C113.479 50.402 113.343 50.094 113.073 49.842C112.811 49.5807 112.494 49.45 112.121 49.45C111.747 49.45 111.425 49.5807 111.155 49.842C110.893 50.094 110.763 50.402 110.763 50.766Z" fill="black"/>
<defs>
<filter id="filter0_d_28954_26487" x="0" y="0" width="349" height="76" filterUnits="userSpaceOnUse" color-interpolation-filters="sRGB">
<feFlood flood-opacity="0" result="BackgroundImageFix"/>
<feColorMatrix in="SourceAlpha" type="matrix" values="0 0 0 0 0 0 0 0 0 0 0 0 0 0 0 0 0 0 127 0" result="hardAlpha"/>
<feOffset dy="1"/>
<feGaussianBlur stdDeviation="1.5"/>
<feComposite in2="hardAlpha" operator="out"/>
<feColorMatrix type="matrix" values="0 0 0 0 0 0 0 0 0 0 0 0 0 0 0 0 0 0 0.08 0"/>
<feBlend mode="normal" in2="BackgroundImageFix" result="effect1_dropShadow_28954_26487"/>
<feBlend mode="normal" in="SourceGraphic" in2="effect1_dropShadow_28954_26487" result="shape"/>
</filter>
<clipPath id="clip0_28954_26487">
<rect width="24" height="24" fill="white" transform="translate(63 10)"/>
</clipPath>
</defs>
</svg>
