<svg width="24" height="10" viewBox="0 0 24 10" fill="none" xmlns="http://www.w3.org/2000/svg">
<path d="M17.6633 7.41767L18.3567 5.6644H20.3585L19.4085 3.00479L20.5967 0L24 9.03606H21.4902L20.9086 7.41767H17.6633Z" fill="#3D3D3D"/>
<path d="M15.5222 9.03607L19.1654 0L16.7501 1.2007e-05L14.2578 5.83932L12.4856 2.40139e-05H10.6291L8.72618 5.83932L7.38422 3.17847L6.1698 6.91989L7.4028 9.03607H9.77982L11.4994 3.79947L13.1389 9.03607H15.5222Z" fill="#5A0FC8"/>
<path d="M2.29274 5.93413H3.78048C4.23114 5.93413 4.63244 5.88383 4.98438 5.78323L5.36913 4.59789L6.44444 1.28503C6.36251 1.15516 6.26897 1.03237 6.16382 0.916678C5.61171 0.305552 4.80392 0 3.74043 0H0V9.03606H2.29274V5.93413ZM4.26199 2.07884C4.47765 2.29588 4.58546 2.58633 4.58546 2.9502C4.58546 3.31686 4.49063 3.60767 4.30098 3.82261C4.09307 4.06144 3.71024 4.18085 3.15251 4.18085H2.29274V1.75325H3.15883C3.67863 1.75325 4.04635 1.86178 4.26199 2.07884Z" fill="#3D3D3D"/>
</svg>
