<svg width="24" height="24" viewBox="0 0 24 24" fill="none" xmlns="http://www.w3.org/2000/svg">
<path d="M11.9221 4.26845C12.2345 1.60873 14.584 -0.285901 17.1687 0.0355438L17.6217 0.0916006C17.6998 0.101623 17.7564 0.174718 17.7466 0.254829L17.692 0.720493C17.3796 3.38022 15.0301 5.27484 12.4453 4.9534L11.9924 4.89731C11.9144 4.88732 11.8587 4.81419 11.8675 4.73408L11.9221 4.26845Z" fill="#0646FF"/>
<path fill-rule="evenodd" clip-rule="evenodd" d="M9.28566 6.50854C6.36609 6.50854 4 8.94394 4 11.9471V18.5614C4 21.5645 6.36609 23.9999 9.28566 23.9999H15.7143C18.6339 23.9999 21 21.5655 21 18.5614V11.9471C21 8.94394 18.6339 6.50854 15.7143 6.50854H9.28566ZM9.57167 10.3299C8.54578 10.3299 7.7141 11.1851 7.7141 12.2405V18.2669C7.7141 19.3224 8.54578 20.1776 9.57167 20.1776H15.4293C16.4552 20.1776 17.2869 19.3224 17.2869 18.2669V12.2405C17.2869 11.1851 16.4552 10.3299 15.4293 10.3299H9.57167Z" fill="#0646FF"/>
</svg>
